<mxfile host="app.diagrams.net" modified="2021-08-12T07:49:47.913Z" agent="5.0 (Windows NT 10.0; Win64; x64) AppleWebKit/537.36 (KHTML, like Gecko) Chrome/90.0.4430.93 Safari/537.36" etag="0BF6xED39yfkFko57-E7" version="14.9.5" type="github">
  <diagram id="SlEYeGduSs3yT64hCzsC" name="Page-1">
    <mxGraphModel dx="2155" dy="746" grid="1" gridSize="10" guides="1" tooltips="1" connect="1" arrows="1" fold="1" page="1" pageScale="1" pageWidth="827" pageHeight="1169" math="0" shadow="0">
      <root>
        <mxCell id="0" />
        <mxCell id="1" parent="0" />
        <mxCell id="akV6pVaeT9nTyEel_BdJ-1" value="&lt;div style=&quot;text-align: justify&quot;&gt;&lt;font style=&quot;font-size: 14px&quot;&gt;Activity#&lt;/font&gt;&lt;span style=&quot;font-size: 14px&quot;&gt;setKeepVisibleCondition&lt;/span&gt;&lt;/div&gt;" style="rounded=1;whiteSpace=wrap;html=1;fillColor=#dae8fc;strokeColor=#6c8ebf;" vertex="1" parent="1">
          <mxGeometry x="120" y="200" width="270" height="60" as="geometry" />
        </mxCell>
        <mxCell id="akV6pVaeT9nTyEel_BdJ-3" value="Impl31#setKeepVisibleCondition" style="rounded=1;whiteSpace=wrap;html=1;fillColor=#dae8fc;strokeColor=#6c8ebf;" vertex="1" parent="1">
          <mxGeometry x="-22" y="430" width="220" height="60" as="geometry" />
        </mxCell>
        <mxCell id="akV6pVaeT9nTyEel_BdJ-4" value="Android 12?" style="rhombus;whiteSpace=wrap;html=1;fillColor=#f8cecc;strokeColor=#b85450;" vertex="1" parent="1">
          <mxGeometry x="200" y="310" width="110" height="80" as="geometry" />
        </mxCell>
        <mxCell id="akV6pVaeT9nTyEel_BdJ-6" value="" style="endArrow=classic;html=1;exitX=0.5;exitY=1;exitDx=0;exitDy=0;" edge="1" parent="1">
          <mxGeometry width="50" height="50" relative="1" as="geometry">
            <mxPoint x="254.57999999999993" y="260" as="sourcePoint" />
            <mxPoint x="254.57999999999993" y="310" as="targetPoint" />
          </mxGeometry>
        </mxCell>
        <mxCell id="akV6pVaeT9nTyEel_BdJ-7" value="Y" style="text;html=1;strokeColor=none;fillColor=none;align=center;verticalAlign=middle;whiteSpace=wrap;rounded=0;" vertex="1" parent="1">
          <mxGeometry x="152.5" y="320" width="40" height="20" as="geometry" />
        </mxCell>
        <mxCell id="akV6pVaeT9nTyEel_BdJ-9" value="N" style="text;html=1;strokeColor=none;fillColor=none;align=center;verticalAlign=middle;whiteSpace=wrap;rounded=0;" vertex="1" parent="1">
          <mxGeometry x="308.5" y="320" width="40" height="20" as="geometry" />
        </mxCell>
        <mxCell id="akV6pVaeT9nTyEel_BdJ-10" value="Impl#isetKeepVisibleCondition" style="rounded=1;whiteSpace=wrap;html=1;fillColor=#dae8fc;strokeColor=#6c8ebf;" vertex="1" parent="1">
          <mxGeometry x="319" y="430" width="191.5" height="60" as="geometry" />
        </mxCell>
        <mxCell id="akV6pVaeT9nTyEel_BdJ-11" value="addOnPreDrawListener" style="rounded=1;whiteSpace=wrap;html=1;fillColor=#f5f5f5;strokeColor=#666666;fontColor=#333333;" vertex="1" parent="1">
          <mxGeometry x="163.5" y="540" width="185" height="60" as="geometry" />
        </mxCell>
        <mxCell id="akV6pVaeT9nTyEel_BdJ-12" value="KeepOnScreenCondition&lt;br&gt;#shouldKeepOnScreen" style="rounded=1;whiteSpace=wrap;html=1;fillColor=#dae8fc;strokeColor=#6c8ebf;" vertex="1" parent="1">
          <mxGeometry x="163.5" y="650" width="185" height="60" as="geometry" />
        </mxCell>
        <mxCell id="akV6pVaeT9nTyEel_BdJ-14" value="" style="endArrow=classic;html=1;exitX=0;exitY=0.5;exitDx=0;exitDy=0;entryX=0.5;entryY=0;entryDx=0;entryDy=0;" edge="1" parent="1" source="akV6pVaeT9nTyEel_BdJ-4" target="akV6pVaeT9nTyEel_BdJ-3">
          <mxGeometry width="50" height="50" relative="1" as="geometry">
            <mxPoint x="510" y="325" as="sourcePoint" />
            <mxPoint x="87" y="398" as="targetPoint" />
            <Array as="points">
              <mxPoint x="87" y="350" />
            </Array>
          </mxGeometry>
        </mxCell>
        <mxCell id="akV6pVaeT9nTyEel_BdJ-16" value="" style="endArrow=classic;html=1;exitX=0.5;exitY=1;exitDx=0;exitDy=0;entryX=0;entryY=0.5;entryDx=0;entryDy=0;" edge="1" parent="1" source="akV6pVaeT9nTyEel_BdJ-3" target="akV6pVaeT9nTyEel_BdJ-11">
          <mxGeometry width="50" height="50" relative="1" as="geometry">
            <mxPoint x="200" y="359.9999999999999" as="sourcePoint" />
            <mxPoint x="240" y="560" as="targetPoint" />
            <Array as="points">
              <mxPoint x="88" y="570" />
            </Array>
          </mxGeometry>
        </mxCell>
        <mxCell id="akV6pVaeT9nTyEel_BdJ-17" value="" style="endArrow=classic;html=1;exitX=0.5;exitY=1;exitDx=0;exitDy=0;entryX=1;entryY=0.5;entryDx=0;entryDy=0;" edge="1" parent="1" target="akV6pVaeT9nTyEel_BdJ-11">
          <mxGeometry width="50" height="50" relative="1" as="geometry">
            <mxPoint x="414" y="490" as="sourcePoint" />
            <mxPoint x="466.5" y="585" as="targetPoint" />
            <Array as="points">
              <mxPoint x="415" y="570" />
            </Array>
          </mxGeometry>
        </mxCell>
        <mxCell id="akV6pVaeT9nTyEel_BdJ-18" value="" style="endArrow=classic;html=1;exitX=0.5;exitY=1;exitDx=0;exitDy=0;" edge="1" parent="1">
          <mxGeometry width="50" height="50" relative="1" as="geometry">
            <mxPoint x="255.57999999999993" y="600" as="sourcePoint" />
            <mxPoint x="255.57999999999993" y="650" as="targetPoint" />
          </mxGeometry>
        </mxCell>
        <mxCell id="akV6pVaeT9nTyEel_BdJ-19" value="removeOnPreDrawListener" style="rounded=1;whiteSpace=wrap;html=1;fillColor=#f5f5f5;strokeColor=#666666;fontColor=#333333;" vertex="1" parent="1">
          <mxGeometry x="163.5" y="760" width="185" height="60" as="geometry" />
        </mxCell>
        <mxCell id="akV6pVaeT9nTyEel_BdJ-20" value="" style="endArrow=classic;html=1;exitX=0.5;exitY=1;exitDx=0;exitDy=0;" edge="1" parent="1">
          <mxGeometry width="50" height="50" relative="1" as="geometry">
            <mxPoint x="255.57999999999993" y="710" as="sourcePoint" />
            <mxPoint x="255.57999999999993" y="760" as="targetPoint" />
          </mxGeometry>
        </mxCell>
        <mxCell id="akV6pVaeT9nTyEel_BdJ-21" value="" style="endArrow=classic;html=1;exitX=1;exitY=0.5;exitDx=0;exitDy=0;entryX=0.5;entryY=0;entryDx=0;entryDy=0;" edge="1" parent="1" source="akV6pVaeT9nTyEel_BdJ-4" target="akV6pVaeT9nTyEel_BdJ-10">
          <mxGeometry width="50" height="50" relative="1" as="geometry">
            <mxPoint x="443" y="350" as="sourcePoint" />
            <mxPoint x="331" y="430" as="targetPoint" />
            <Array as="points">
              <mxPoint x="414" y="350" />
            </Array>
          </mxGeometry>
        </mxCell>
        <mxCell id="akV6pVaeT9nTyEel_BdJ-22" value="Android 12?" style="rhombus;whiteSpace=wrap;html=1;fillColor=#f8cecc;strokeColor=#b85450;" vertex="1" parent="1">
          <mxGeometry x="199" y="870" width="110" height="80" as="geometry" />
        </mxCell>
        <mxCell id="akV6pVaeT9nTyEel_BdJ-23" value="" style="endArrow=classic;html=1;exitX=0.5;exitY=1;exitDx=0;exitDy=0;" edge="1" parent="1">
          <mxGeometry width="50" height="50" relative="1" as="geometry">
            <mxPoint x="254.57999999999993" y="820" as="sourcePoint" />
            <mxPoint x="254.57999999999993" y="870" as="targetPoint" />
          </mxGeometry>
        </mxCell>
        <mxCell id="akV6pVaeT9nTyEel_BdJ-24" value="N" style="text;html=1;strokeColor=none;fillColor=none;align=center;verticalAlign=middle;whiteSpace=wrap;rounded=0;" vertex="1" parent="1">
          <mxGeometry x="250" y="950" width="40" height="20" as="geometry" />
        </mxCell>
        <mxCell id="akV6pVaeT9nTyEel_BdJ-26" value="dispatchOnExitAnimation" style="rounded=1;whiteSpace=wrap;html=1;fillColor=#dae8fc;strokeColor=#6c8ebf;" vertex="1" parent="1">
          <mxGeometry x="162.5" y="1000" width="185" height="60" as="geometry" />
        </mxCell>
        <mxCell id="akV6pVaeT9nTyEel_BdJ-27" value="OnExitAnimationListener&lt;br&gt;#onSplashScreenExit" style="rounded=1;whiteSpace=wrap;html=1;fillColor=#dae8fc;strokeColor=#6c8ebf;" vertex="1" parent="1">
          <mxGeometry x="162.5" y="1109" width="185" height="60" as="geometry" />
        </mxCell>
        <mxCell id="akV6pVaeT9nTyEel_BdJ-28" value="" style="endArrow=classic;html=1;exitX=0.5;exitY=1;exitDx=0;exitDy=0;" edge="1" parent="1">
          <mxGeometry width="50" height="50" relative="1" as="geometry">
            <mxPoint x="254.70999999999992" y="950" as="sourcePoint" />
            <mxPoint x="254.70999999999992" y="1000" as="targetPoint" />
          </mxGeometry>
        </mxCell>
        <mxCell id="akV6pVaeT9nTyEel_BdJ-29" value="" style="endArrow=classic;html=1;exitX=0.5;exitY=1;exitDx=0;exitDy=0;" edge="1" parent="1">
          <mxGeometry width="50" height="50" relative="1" as="geometry">
            <mxPoint x="254.71000000000026" y="1060" as="sourcePoint" />
            <mxPoint x="254.71000000000026" y="1110" as="targetPoint" />
          </mxGeometry>
        </mxCell>
        <mxCell id="akV6pVaeT9nTyEel_BdJ-30" value="End" style="ellipse;whiteSpace=wrap;html=1;fillColor=#bac8d3;strokeColor=#23445d;" vertex="1" parent="1">
          <mxGeometry x="194" y="1219" width="120" height="50" as="geometry" />
        </mxCell>
        <mxCell id="akV6pVaeT9nTyEel_BdJ-31" value="" style="endArrow=classic;html=1;exitX=0.5;exitY=1;exitDx=0;exitDy=0;" edge="1" parent="1">
          <mxGeometry width="50" height="50" relative="1" as="geometry">
            <mxPoint x="253.5" y="1169" as="sourcePoint" />
            <mxPoint x="253.5" y="1219" as="targetPoint" />
          </mxGeometry>
        </mxCell>
        <mxCell id="akV6pVaeT9nTyEel_BdJ-32" value="" style="endArrow=classic;html=1;exitX=0;exitY=0.5;exitDx=0;exitDy=0;entryX=0;entryY=0.5;entryDx=0;entryDy=0;" edge="1" parent="1" target="akV6pVaeT9nTyEel_BdJ-30">
          <mxGeometry width="50" height="50" relative="1" as="geometry">
            <mxPoint x="199" y="910" as="sourcePoint" />
            <mxPoint x="87" y="990" as="targetPoint" />
            <Array as="points">
              <mxPoint x="120" y="910" />
              <mxPoint x="120" y="1080" />
              <mxPoint x="120" y="1244" />
            </Array>
          </mxGeometry>
        </mxCell>
        <mxCell id="akV6pVaeT9nTyEel_BdJ-33" value="Y" style="text;html=1;strokeColor=none;fillColor=none;align=center;verticalAlign=middle;whiteSpace=wrap;rounded=0;" vertex="1" parent="1">
          <mxGeometry x="152.5" y="890" width="40" height="20" as="geometry" />
        </mxCell>
      </root>
    </mxGraphModel>
  </diagram>
</mxfile>
